<svg xmlns="http://www.w3.org/2000/svg" viewBox="0 0 32 32">
  <circle cx="16" cy="16" r="16" fill="#25D366"/>
  <path fill="#FFFFFF" d="M23.47 8.52A10.87 10.87 0 0 0 16.02 5c-6 0-10.9 4.88-10.9 10.9 0 1.92.5 3.8 1.46 5.46L5 27l5.8-1.52a10.9 10.9 0 0 0 5.21 1.33h.01c6 0 10.9-4.88 10.9-10.9 0-2.91-1.13-5.65-3.47-7.39zm-7.45 16.77h-.01a9.05 9.05 0 0 1-4.6-1.26l-.33-.2-3.44.9.92-3.36-.21-.34a9.04 9.04 0 0 1-1.39-4.83c0-5 4.07-9.07 9.08-9.07 2.42 0 4.7.95 6.41 2.66a9 9 0 0 1 2.66 6.42c0 5-4.07 9.08-9.09 9.08zm4.98-6.8c-.27-.14-1.6-.79-1.85-.88-.25-.09-.43-.14-.61.14-.18.27-.7.88-.86 1.06-.16.18-.32.2-.59.07-.27-.14-1.13-.42-2.15-1.33-.8-.71-1.33-1.6-1.49-1.87-.16-.27-.02-.42.12-.55.12-.12.27-.32.4-.48.14-.16.18-.27.27-.45.09-.18.05-.34-.02-.48-.07-.14-.61-1.47-.84-2.01-.22-.53-.44-.46-.61-.47l-.52-.01c-.18 0-.48.07-.73.34-.25.27-.96.94-.96 2.29s.98 2.66 1.12 2.84c.14.18 1.93 2.95 4.68 4.14.65.28 1.16.45 1.56.58.66.21 1.25.18 1.72.11.53-.08 1.6-.65 1.82-1.28.23-.63.23-1.17.16-1.28-.07-.11-.25-.18-.52-.32z"/>
</svg>
